<svg xmlns="http://www.w3.org/2000/svg" viewBox="0 0 1479.36 424.82"><defs><style>.cls-1{fill:#1a1a2e;}</style></defs><g id="Camada_2" data-name="Camada 2"><g id="Camada_1-2" data-name="Camada 1"><g id="Camada_2-2" data-name="Camada 2"><g id="Camada_1-2-2" data-name="Camada 1-2"><path class="cls-1" d="M664,261.8l-28.45-96.47V261.8H623.24V122h40.41l23.42,84.56h1.24L711.8,122h41.59V261.8H714.72V165.33L687.87,261.8ZM861,122H824.33L783.12,261.8h15.49l8.58-29.21h44.14l8.22,29.21h39.92Zm-49.28,96.61,17.8-62.3,17.79,62.3ZM968.8,261.8l-28.45-96.47V261.8H928V122h40.42l23.41,84.56h1.25L1016.59,122h41.58V261.8h-38.66V165.33L992.66,261.8Zm190.42,3.25c-18.83,0-35.64-2.18-46.51-11.3-10.87-9.32-14-25.34-14-38.73V122h40.81V224.73c.37,12.78,2.4,22.84,17.15,25.37l15,.36c12.95-1.09,20.61-13.5,21.15-26.12V122h13.87v92.2C1206.65,243.94,1188.71,265.05,1159.22,265.05Zm150.3-3.25h-42.07V135.55h-36V122h112.36v13.51h-34.29Zm104-12.8h58.92v12.8h-100V122h101.72v13.15h-60.63v42.68h42.32v14h-42.32ZM637.75,361.18h21.89v5.54H624.07V313.21H657v5.65H637.75v16.33h16.51v5.6H637.75ZM663.54,349h5.67c-.22.71-1.47,5.1,1.06,8.94,2.07,3.12,5.4,4,7.29,4.47a15.77,15.77,0,0,0,7.48,0,6.83,6.83,0,0,0,6-4.54c.91-3.12-1.38-5.86-1.79-6.36A11.78,11.78,0,0,0,685.9,349a23.68,23.68,0,0,0-3.74-1.69c-1.52-.59-2.28-.89-3.87-1.46a31.63,31.63,0,0,1-7.57-3.92c-.92-.7-6.05-4.6-6.75-11.17a15,15,0,0,1,1-7.21,15.3,15.3,0,0,1,3.61-5.2c6.09-5.9,15.06-5.23,16.72-5.1,3.78.28,8,.59,11.13,4,3.87,4.17,3.32,9.83,3.19,10.94h-5.56c.08-.75.57-5.87-2.87-8.75-1.51-1.27-3.11-1.54-5.13-1.89-2.72-.46-8.38-1.43-11,1.93a7.39,7.39,0,0,0-.91,6.62c1.35,4.07,15.58,7.81,17.06,8.52,4.7,2.28,6.21,4.51,6.75,5.16a18,18,0,0,1,4.19,10.67,16.76,16.76,0,0,1-4.92,11.9c-4.44,4.2-10,4.23-14.82,4.24-5.06,0-13.8,0-17.72-6.19C662,356,663.05,350.84,663.54,349Zm70.15,17.62H718.44v-47.9H704.92v-5.47h41v5.47H733.69ZM791,345.73a13.61,13.61,0,0,0-8.22-5.16V339.2a12,12,0,0,0,7.57-3.45,12.18,12.18,0,0,0,3.4-8.77,14.42,14.42,0,0,0-3.38-8.84,15.07,15.07,0,0,0-11.8-4.93h-25.8v53.37h13.75V340.66l8,.08c3.47.28,3,19.39,3,19,0,0,0,4.71,1.2,6.83h15v-1.25c.1-9.31-.47-12.62-.47-12.62C792.7,349.46,792.38,347.67,791,345.73ZM779.87,330a8.45,8.45,0,0,1-1.81,3.89c-2.5,2.84-6.48,2.64-7.12,2.6h-4.42V318.68h5.68a7.26,7.26,0,0,1,4.92,1.5,8,8,0,0,1,2.47,4.1A10.9,10.9,0,0,1,779.87,330Zm44,36.47c-7,0-13.27-.82-17.32-4.21s-5.22-9.44-5.22-14.43V313.2h15.2v38.25c.14,4.76.9,8.51,6.39,9.45l5.57.13c4.83-.41,7.68-5,7.88-9.73V313.2h5.17v34.34c0,11.06-6.66,18.93-17.65,18.93Zm50.7.11H859.34v-47.9H845.82v-5.47h41v5.47H874.59Zm38.77-.11c-7,0-13.28-.82-17.33-4.21s-5.21-9.44-5.21-14.43V313.2H906v38.25c.14,4.76.89,8.51,6.39,9.45l5.61.1c4.82-.41,7.68-5,7.88-9.73V313.2H931v34.34c0,11.06-6.66,18.93-17.64,18.93Zm64.82-20.74a13.61,13.61,0,0,0-8.22-5.16V339.2a12,12,0,0,0,7.57-3.45,12.18,12.18,0,0,0,3.4-8.77,14.56,14.56,0,0,0-3.38-8.84,15.09,15.09,0,0,0-11.81-4.93H939.91v53.37h13.75V340.66l8,.08c3.47.28,3,19.39,3,19,0,0,0,4.71,1.2,6.83h15v-1.25c.1-9.31-.47-12.62-.47-12.62-.55-3.24-.87-5-2.21-7ZM967,330a8.45,8.45,0,0,1-1.81,3.89c-2.5,2.84-6.48,2.64-7.12,2.6h-4.42V318.68h5.68a7.26,7.26,0,0,1,4.92,1.5,8,8,0,0,1,2.47,4.1A10.9,10.9,0,0,1,967,330Zm47.53-16.58h-14L984.82,366.7h5.91L994,355.58h16.84L1014,366.7h15.23Zm-18.79,36.84,6.79-23.74,6.75,23.74Zm36.18-1.3h5.67c-.22.71-1.47,5.1,1.06,8.94,2.07,3.12,5.4,4,7.29,4.47a15.73,15.73,0,0,0,7.47,0,6.83,6.83,0,0,0,6-4.54c.91-3.12-1.38-5.86-1.79-6.36a11.72,11.72,0,0,0-3.38-2.55,23.68,23.68,0,0,0-3.74-1.69c-1.52-.59-2.28-.89-3.87-1.46a31.63,31.63,0,0,1-7.57-3.92c-.92-.7-6-4.6-6.75-11.17a15,15,0,0,1,1-7.21,15.3,15.3,0,0,1,3.61-5.2c6.09-5.9,15.06-5.23,16.72-5.1,3.78.28,8,.59,11.13,4,3.87,4.17,3.32,9.83,3.19,10.94h-5.56c.08-.75.57-5.87-2.87-8.75-1.51-1.27-3.11-1.54-5.13-1.89-2.72-.46-8.38-1.43-11,1.93a7.39,7.39,0,0,0-.91,6.62c1.35,4.07,15.58,7.81,17.06,8.52,4.7,2.28,6.21,4.51,6.74,5.16a17.9,17.9,0,0,1,4.2,10.67,16.76,16.76,0,0,1-4.92,11.9c-4.44,4.2-10,4.23-14.82,4.24-5.06,0-13.8,0-17.72-6.19-2.72-4.32-1.64-9.48-1.15-11.32Zm84.41,17.51L1105.59,330v36.44h-4.65V313.68h15.26l8.85,31.94h.47l8.87-31.94h15.71v52.79h-14.6V330l-10.15,36.44Zm57.38-5.29h21.89v5.54H1160V313.21h33v5.65h-19.25v16.33h16.51v5.6h-16.51Zm52,5.4H1210.5v-47.9H1197v-5.47h41v5.47h-12.27Zm36.71-67.19-5,9.78h1.91l11.77-8.55v-1.23Zm5.22,14h-14L1238,366.74h5.91l3.27-11.16H1264l3.16,11.16h15.23Zm-18.79,36.84,6.79-23.74,6.79,23.74Zm53.44,10.42h21.48v5.6h-36.18V313.87h14.7Zm25.53-46.81h14.7v52.41h-14.7Zm58.31,34c1,5.49-1.3,10.61-5.29,12.54-4.16,2-9.2.1-11.9-2.65,0,0-2.66-2.71-3.54-18.33.88-15.61,3.54-18.33,3.54-18.33,2.7-2.75,7.74-4.65,11.9-2.64,4,1.92,6.32,7.05,5.29,12.54h4.52a19.83,19.83,0,0,0-1.28-11.08,18.6,18.6,0,0,0-9.2-6.67,19.45,19.45,0,0,0-12.45.45,23.23,23.23,0,0,0-6.44,3.39,25.56,25.56,0,0,0-5.52,5.42,27.71,27.71,0,0,0-4.15,8.62,31.44,31.44,0,0,0-1,6.25h-.13v4h.13a31.44,31.44,0,0,0,1,6.25,27.71,27.71,0,0,0,4.15,8.62,25.84,25.84,0,0,0,5.52,5.43,23.74,23.74,0,0,0,6.44,3.38,19.38,19.38,0,0,0,12.45.45,18.65,18.65,0,0,0,9.2-6.66,20,20,0,0,0,1.56-7.2,19.39,19.39,0,0,0-.28-3.88Zm37.19-34.49h-14l-15.7,53.28h5.91l3.26-11.12h16.84l3.12,11.12H1438Zm-18.78,36.84,6.79-23.74,6.78,23.74Zm36.2-1.3h5.68l.09,8a10.07,10.07,0,0,0,2,2.63,10.64,10.64,0,0,0,6.28,2.8h7.48a6.81,6.81,0,0,0,6-4.54c.91-3.12-1.37-5.86-1.79-6.36a11.5,11.5,0,0,0-3.37-2.55,23.68,23.68,0,0,0-3.74-1.69c-1.52-.59-2.28-.89-3.88-1.46a31.63,31.63,0,0,1-7.57-3.92c-.91-.7-6-4.6-6.75-11.17a15.07,15.07,0,0,1,1.06-7.21,15.3,15.3,0,0,1,3.61-5.2c6.09-5.9,15-5.23,16.72-5.1,3.77.28,8,.59,11.13,4,3.86,4.17,3.32,9.83,3.19,10.94h-5.56c.08-.75.56-5.87-2.88-8.75-1.51-1.27-3.1-1.54-5.12-1.89-2.72-.46-8.38-1.43-11,1.93a7.38,7.38,0,0,0-.91,6.62c1.35,4.07,15.58,7.81,17,8.52,4.71,2.28,6.22,4.51,6.75,5.16a18,18,0,0,1,4.2,10.67,16.81,16.81,0,0,1-4.93,11.9c-4.26,4-9.45,4.13-14.82,4.24-4.31.08-10.89.21-15.55-4.43a14.87,14.87,0,0,1-3.35-5.24ZM288.24,418.61c-2.34.84-5,1-7.14,2.14-1.61.83-2.22,2.68-3.53,4.07H267.35c-1.32-1.39-1.93-3.24-3.54-4.07-2.17-1.11-4.79-1.3-7.13-2.14-14.94-5.35-20-14.26-18.53-32.63h68.61C308.22,404.35,303.17,413.26,288.24,418.61Zm56.19-131.53,62.8-93.42L320.56,70l-95.21.31L137.73,197.42l62.73,91.3ZM121.92,47.24l-85,25.59L0,184.27l129.67,113.6-5.95,20.73,21.13,25,17.85-63.29-61.87-83.89L188.57,70.3ZM418.83,320.67l-5.87-23,128.5-113.56-36-111.81L420.34,47l-65.1,23.29,4.49,6.85,83.61,119-62.79,86.25,17.16,61.19Zm-66.35,40.14,8.76,33,114.18-1.67,41.25-45,16.42-20.35-10.25-38.11-28.09-20,11.86,46.83-45.79,55.68-83.35.28-10.3-29.76ZM175,341.78l-10.29,29.76-83.36-.28L35.6,315.58l11.86-46.83-28.09,20L9.12,326.84l16.42,20.35,41.25,45L181,393.85l8.76-33Zm97.45-23.18H205a69.18,69.18,0,0,0,19.19,25.6c9,7.46,18.57,11.54,31,11.46l17.27.08h0l17.27-.08c12.46.08,22.07-4,31-11.46A69.2,69.2,0,0,0,340,318.6Zm1066-256.55c-10.29-1.53-43-6.71-53.34-8.16-23.77-3.36-47.55-6.61-71.31-10-24-3.42-47.94-7-71.93-10.42s-48-6.63-72-10S1022,16.46,998,13C970.24,9,899.49,0,899.49,0S753,40.8,681.47,61c-17.92,5-57.4,18-57.4,18s86-16.74,123-23.77c39.72-7.55,152.37-28,152.37-28s439,35.34,439.08,34.82Z"/></g></g></g></g></svg>
